<?xml version="1.0" standalone="no"?><!DOCTYPE svg PUBLIC "-//W3C//DTD SVG 1.1//EN" "http://www.w3.org/Graphics/SVG/1.1/DTD/svg11.dtd"><svg t="1729653790688" class="icon" viewBox="0 0 1024 1024" version="1.1" xmlns="http://www.w3.org/2000/svg" p-id="9405" xmlns:xlink="http://www.w3.org/1999/xlink" width="200" height="200"><path d="M246.6 673.8c84-45.8 133.1-48.1 180.6 42.8 27.1 51.8 75.5 89.9 125.8 100.2 3.8-43.2 7-348.8 7-348.8l178.3-227.3-1.3-135.1-383.1-18.4 1.2 135.1-111 181.2 2.5 270.3z" fill="#98E0F9" p-id="9406"></path><path d="M847.1 591.9V423l-107-135.1v-4.4L605 468v352.6c22.5-14.8 58.1-18.3 90.1-82.4 64.5-128.9 78.8-146.3 152-146.3z" fill="#6AC3EA" p-id="9407"></path><path d="M755.1 258.5l-480.5-24V113.8c0-12.6 5.2-24.7 14.4-33.3s21.6-13.1 34.1-12.4L372 71c8.3 0.5 14.6 7.6 14.1 15.9s-7.6 14.6-15.9 14.1l-48.8-3c-4.4-0.3-8.6 1.3-11.8 4.3-3.2 3-5 7.1-5 11.5V206l420.5 21v-99.1c0-3.5-2.7-6.3-6.1-6.5l-127.6-7.5c-8.3-0.5-14.6-7.6-14.1-15.9s7.6-14.6 15.9-14.1l127.6 7.5c19.3 1.1 34.4 17.2 34.4 36.5v130.6z" fill="" p-id="9408"></path><path d="M514.9 109.4h-0.9l-78.8-4.6c-8.3-0.5-14.6-7.6-14.1-15.9s7.6-14.6 15.9-14.1l78.8 4.6c8.3 0.5 14.6 7.6 14.1 15.9-0.5 7.9-7.1 14.1-15 14.1zM566.8 484.4l-376.5-65.8c-8.5-1.8-15.6-7.7-19-15.7-3.4-8-2.7-17.2 1.9-24.6l108.4-173.5 463.8 24.4-178.6 255.2z m-365.6-94.3l351.9 61.5 136.7-195.3-392.1-20.6-96.5 154.4z" fill="" p-id="9409"></path><path d="M549.9 951.8c-2.5 0-4.9-0.4-7.3-1.1l-349.2-78-0.9-0.3c-18.3-6.5-30.5-23.9-30.5-43.3V400.4c0-8.3 6.7-15 15-15s15 6.7 15 15V829c0 6.5 3.9 12.3 9.9 14.8l343 76.6V468c0-8.3 6.7-15 15-15s15 6.7 15 15v458.8c0 8.1-4 15.8-10.6 20.4-4.2 3.1-9.3 4.6-14.4 4.6zM803 843.9c-5.7 0-11.1-3.2-13.6-8.7-3.5-7.5-0.2-16.4 7.3-19.9l41.1-19V423c0-8.3 6.7-15 15-15s15 6.7 15 15v392.5l-58.5 27c-2.1 0.9-4.2 1.4-6.3 1.4z" fill="" p-id="9410"></path><path d="M560 956c-5.7 0-11.1-3.2-13.6-8.7-3.5-7.5-0.2-16.4 7.3-19.9l179.5-82.9c7.5-3.5 16.4-0.2 19.9 7.3s0.2 16.4-7.3 19.9l-179.5 82.9c-2.1 1-4.2 1.4-6.3 1.4zM559.9 483c-7.3 0-13.7-5.3-14.8-12.7-1.3-8.2 4.4-15.8 12.5-17.1L828 411.6 727.4 250.7c-4.4-7-2.3-16.3 4.8-20.7 7-4.4 16.3-2.3 20.7 4.8l104.2 166.7c4.5 7.3 5.1 16.3 1.6 24.1-3.6 7.8-10.8 13.2-19.3 14.5l-277.1 42.6c-0.8 0.3-1.6 0.3-2.4 0.3z m271.7-65.5z" fill="" p-id="9411"></path><path d="M257.301896 597.47625a27.8 24.2 47.01 1 0 35.40328-33.002542 27.8 24.2 47.01 1 0-35.40328 33.002542Z" fill="#050400" p-id="9412"></path><path d="M413.007912 619.345526a27.8 24.2 47.01 1 0 35.40328-33.002542 27.8 24.2 47.01 1 0-35.40328 33.002542Z" fill="#050400" p-id="9413"></path><path d="M357.7 729.5c-2 0-4-0.1-6-0.4-22.6-3.2-41-24.2-41-46.9 0-4.1 3.4-7.5 7.5-7.5s7.5 3.4 7.5 7.5c0 15.5 12.6 29.8 28.1 32 7.1 1 13.7-0.8 18.6-5 4.8-4.2 7.4-10.3 7.4-17.3 0-4.1 3.4-7.5 7.5-7.5s7.5 3.4 7.5 7.5c0 11.4-4.5 21.5-12.6 28.6-6.7 5.9-15.2 9-24.5 9z" fill="#050400" p-id="9414"></path><path d="M199.058319 654.102822a32.5 28.2 47.01 1 0 41.255061-38.457508 32.5 28.2 47.01 1 0-41.255061 38.457508Z" fill="#F8B0CB" p-id="9415"></path><path d="M465.384975 697.88051a32.5 28.2 47.01 1 0 41.255062-38.457508 32.5 28.2 47.01 1 0-41.255062 38.457508Z" fill="#F8B0CB" p-id="9416"></path></svg>