<?xml version="1.0" standalone="no"?><!DOCTYPE svg PUBLIC "-//W3C//DTD SVG 1.1//EN" "http://www.w3.org/Graphics/SVG/1.1/DTD/svg11.dtd"><svg t="1729653672550" class="icon" viewBox="0 0 1036 1024" version="1.1" xmlns="http://www.w3.org/2000/svg" p-id="4949" xmlns:xlink="http://www.w3.org/1999/xlink" width="202.34375" height="200"><path d="M477.617244 651.295705a56.729402 56.729402 0 0 1-23.55045-5.081003c-13.820329-6.224229-24.071253-18.278909-28.796586-33.941102-4.179125-13.833031-3.544-29.406307 1.486193-44.014191a80.025802 80.025802 0 0 1-28.491726 5.309648c-29.749274 0-54.620785-17.567569-60.463939-42.705832-7.13881-30.48602 12.486566-63.144169 45.72903-75.999107A328.347136 328.347136 0 0 0 590.923618 104.033543c-4.750738-35.363783 14.430049-68.314089 44.598506-76.761258A50.111395 50.111395 0 0 1 649.101106 25.405016c30.48602 0 57.237502 26.675267 62.08986 62.127968a445.388047 445.388047 0 0 1-10.428759 175.104077l125.894559-107.8697a60.692584 60.692584 0 0 1 78.971494 92.169399l-110.689657 94.836927q10.365247-0.482695 20.743196-0.482695a445.997767 445.997767 0 0 1 145.672365 24.41422c20.933734 7.18962 37.9805 22.661275 45.576599 41.37207 6.148014 15.154092 5.741534 30.968715-1.130523 44.534994-10.301734 20.412931-32.683554 33.128142-58.368025 33.128141a78.844469 78.844469 0 0 1-25.405017-4.229935A325.616096 325.616096 0 0 0 815.503964 462.663458 328.486863 328.486863 0 0 0 537.534976 616.07165c-13.756816 21.772099-36.710249 35.224055-59.917732 35.224055z" fill="#76DDA2" p-id="4950"></path><path d="M649.101106 50.810033c16.741906 0 33.674349 16.513261 36.913489 40.165331a422.587044 422.587044 0 0 1-46.059295 257.21309L843.170027 174.024363a35.376485 35.376485 0 0 1 49.743022 3.810752 35.389188 35.389188 0 0 1-3.810752 49.743023L711.686364 379.639864a422.396507 422.396507 0 0 1 241.347657 10.085792c25.595554 8.790136 38.818865 33.128142 30.066837 50.403552-6.351254 12.588186-20.527253 19.206192-35.706751 19.206193a53.769717 53.769717 0 0 1-17.275411-2.870767A351.173543 351.173543 0 0 0 815.503964 437.258441c-118.997097 0-233.662639 60.349617-299.55055 165.335848-8.891756 14.061677-23.931526 23.2964-38.425087 23.2964a31.540328 31.540328 0 0 1-13.083584-2.769147c-17.669189-7.95177-22.63587-35.19865-8.231225-58.113975a421.723274 421.723274 0 0 1 52.791624-67.691667c-0.165133-0.30486-0.330265-0.622423-0.482695-0.939985A421.481926 421.481926 0 0 1 417.915456 544.467611a55.027266 55.027266 0 0 1-19.701591 3.74724c-17.669189 0-32.480314-9.158508-35.70675-23.055052-4.433175-18.926737 9.793634-38.69184 30.104944-46.554693C545.588366 420.021138 638.519916 262.802193 616.074584 100.553055c-2.896172-21.594264 7.621505-43.582306 26.28149-48.815739A24.706379 24.706379 0 0 1 649.101106 50.810033m0-50.810033a75.592627 75.592627 0 0 0-20.412931 2.807254c-22.572357 6.351254-41.270449 21.873719-52.651897 43.810951a103.080854 103.080854 0 0 0-10.289031 60.705287v0.190538a300.020542 300.020542 0 0 1-3.366165 102.077356 304.26318 304.26318 0 0 1-100.159278 169.438758 300.020542 300.020542 0 0 1-87.774332 52.156499h-0.177835a103.080854 103.080854 0 0 0-48.269531 38.285359c-13.718709 20.527253-18.329719 44.382564-13.007368 67.196269a77.993401 77.993401 0 0 0 34.614335 48.040886 93.617486 93.617486 0 0 0 49.539782 14.277619 91.889945 91.889945 0 0 0 3.709132 20.641576c6.897462 22.470737 22.38182 40.597216 42.718535 49.793833a81.981988 81.981988 0 0 0 34.042722 7.278537c31.857891 0 63.042548-17.986752 81.296053-46.935768v-0.15243a302.573746 302.573746 0 0 1 354.539708-125.094301h0.177835a104.160568 104.160568 0 0 0 33.648944 5.589103c35.325675 0 66.396011-18.062967 81.067408-47.126305 10.060387-19.90483 10.78443-43.772843 1.981591-65.494133-10.466867-25.811497-32.658149-46.173617-60.895824-55.891036a471.377379 471.377379 0 0 0-107.97132-23.563153L922.205033 266.219168a86.097601 86.097601 0 0 0-112.036123-130.746918l-71.769171 61.505545a471.898181 471.898181 0 0 0-1.994294-112.950703C729.774736 36.151338 692.289634 0 649.101106 0z" fill="#434E52" p-id="4951"></path><path d="M133.379271 998.594984c-37.142134 0-64.960627-9.222021-82.667924-27.399311-27.119855-27.843898-32.467611-78.209343-15.90354-149.889597 11.826035-51.102191 33.140844-104.160568 48.091696-130.086387 13.972759-24.388816 66.751681-92.855335 128.193713-166.479073C253.710132 473.676533 334.574299 379.385814 397.591442 321.373459c15.75111-15.24301 71.934304-63.614161 150.969311-63.614162 56.589674 0 109.863994 24.922321 158.374873 74.068326l0.228645 0.241348c121.944079 126.898057 58.952341 254.12638 2.286452 309.509316-59.701789 61.492842-156.101124 139.841913-208.321136 181.112362-75.135336 59.409631-144.961024 110.295879-169.730915 123.646216-33.636242 18.202694-126.250229 52.207309-198.019401 52.207308z" fill="#FCCE0B" p-id="4952"></path><path d="M548.598861 283.100801c42.807453 0 91.305629 16.868931 140.286501 66.510334 117.142531 121.867864 41.918277 235.707743 2.616716 273.954995-98.482546 101.518446-326.924455 275.987397-372.183491 300.46513-31.756271 17.211899-120.165728 49.146004-185.952019 49.146004-27.221475 0-50.59409-5.474781-64.465229-19.726995-47.418463-48.676012 10.504974-205.272533 36.011611-249.540774 25.659067-44.649316 206.085494-268.365892 310.169846-364.142804 23.080457-22.470737 72.544025-56.665889 133.503362-56.66589m0-50.810033c-88.130002 0-150.51202 53.261617-168.409854 70.537029-64.084154 59.066663-145.634257 154.144938-188.606843 205.640906C138.930267 571.612871 78.110658 648.615476 60.873354 678.567991c-15.382737 26.675267-37.866177 81.016598-50.810033 137.021956C2.543436 848.044856-0.784621 877.146302 0.155364 902.081326c1.397276 37.027812 12.283325 66.243581 32.340586 86.834346 22.673977 23.283698 56.602377 35.084328 100.870618 35.084328 42.79475 0 88.917558-10.98767 120.127621-20.209691 34.296772-10.162007 68.758677-23.563153 90.009973-35.071625 30.3844-16.424343 109.012926-75.211551 173.465453-126.174014 52.613789-41.600715 149.787977-120.610316 210.531372-183.106657a259.283598 259.283598 0 0 0 40.241546-51.584886 244.447069 244.447069 0 0 0 31.057633-80.559307c9.768229-52.181904 4.992086-131.47096-73.280771-212.894038l-0.228645-0.241348-0.228645-0.241348c-27.564443-27.945518-57.161287-49.006277-88.091895-62.64877a217.581264 217.581264 0 0 0-88.358647-18.964845z" fill="#434E52" p-id="4953"></path><path d="M319.559934 925.136378c-26.090952 14.125189-90.314834 38.18374-148.873396 46.351453 34.13164-11.889548 63.728484-25.201776 80.025802-34.500013C300.6459 908.521498 555.102545 710.070211 665.995442 596.281142c30.244672-29.457117 80.381472-97.809314 70.24487-178.305108 43.074205 94.646389-12.575483 175.612177-44.458778 206.695214C593.21007 726.189694 364.818971 900.607835 319.559934 925.136378z" fill="#F4AF16" p-id="4954"></path><path d="M104.163502 703.248964c-14.798422 25.709877-40.546406 89.273228-50.263825 147.590444 12.778723-33.801374 26.865805-63.042548 36.595926-79.085817C120.282985 722.607587 325.352278 473.524103 442.050221 365.603592c30.244672-29.457117 99.930632-77.777458 180.096162-65.519537-93.477758-45.551195-175.891632 7.95177-207.800332 39.072915C310.261698 434.895775 129.835271 658.650458 104.163502 703.248964z" fill="#FCE15B" p-id="4955"></path><path d="M469.310144 516.536439l23.296968-22.686978 115.127553 118.223013-23.296968 22.686978-115.127553-118.223013Z" fill="#F4AF16" p-id="4956"></path><path d="M318.267681 518.941442l23.296968-22.686978 115.127553 118.223013-23.296968 22.686979-115.127553-118.223014Z" fill="#F4AF16" p-id="4957"></path><path d="M209.335078 727.215261l23.296968-22.686978 115.127553 118.223013-23.296968 22.686978-115.127553-118.223013Z" fill="#F4AF16" p-id="4958"></path><path d="M185.818333 816.177879l23.296968-22.686978 115.127553 118.223013-23.296969 22.686978-115.127552-118.223013Z" fill="#F4AF16" p-id="4959"></path><path d="M360.574751 668.29543l23.296968-22.686978 115.127552 118.223013-23.296968 22.686979-115.127552-118.223014Z" fill="#F4AF16" p-id="4960"></path></svg>